<svg width="24" height="31" viewBox="0 0 24 31" fill="none" xmlns="http://www.w3.org/2000/svg">
<path d="M9.12854 23.5002H14.8717C15.0587 21.7974 15.9271 20.392 17.3367 18.8578C17.4968 18.685 18.5154 17.6295 18.6358 17.4794C19.6364 16.2294 20.2635 14.7221 20.445 13.1313C20.6266 11.5405 20.3551 9.93072 19.6618 8.48742C18.9686 7.04413 17.8817 5.82599 16.5265 4.97329C15.1713 4.12059 13.6028 3.66801 12.0017 3.66767C10.4005 3.66733 8.83181 4.11924 7.47623 4.97136C6.12065 5.82348 5.03332 7.04115 4.33945 8.48415C3.64558 9.92715 3.37339 11.5368 3.55423 13.1277C3.73507 14.7186 4.36159 16.2261 5.36163 17.4765C5.48346 17.6281 6.50488 18.685 6.66213 18.8564C8.07313 20.392 8.94154 21.7974 9.12854 23.5002ZM14.8335 26.3335H9.16679V27.7502H14.8335V26.3335ZM3.15163 19.2502C1.8174 17.5832 0.981219 15.5732 0.739417 13.4517C0.497616 11.3303 0.860027 9.18367 1.7849 7.25918C2.70978 5.33469 4.15949 3.71061 5.96705 2.57403C7.7746 1.43746 9.86646 0.834619 12.0017 0.834961C14.1369 0.835303 16.2285 1.43881 18.0357 2.57597C19.8429 3.71312 21.2921 5.33766 22.2164 7.26245C23.1406 9.18724 23.5023 11.334 23.2599 13.4554C23.0174 15.5767 22.1806 17.5865 20.8458 19.253C19.9675 20.3467 17.6668 22.0835 17.6668 24.2085V27.7502C17.6668 28.5017 17.3683 29.2223 16.8369 29.7537C16.3056 30.285 15.5849 30.5835 14.8335 30.5835H9.16679C8.41535 30.5835 7.69468 30.285 7.16332 29.7537C6.63197 29.2223 6.33346 28.5017 6.33346 27.7502V24.2085C6.33346 22.0835 4.03138 20.3467 3.15163 19.2502ZM13.4168 12.1725H16.9585L10.5835 20.6725V15.0059H7.04179L13.4168 6.50021V12.174V12.1725Z" fill="#5DBD6D"/>
</svg>
