<svg width="1025" height="663" viewBox="0 0 1025 663" fill="none" xmlns="http://www.w3.org/2000/svg">
<path d="M936.023 2.95064C935.955 2.44005 936.039 1.92067 936.266 1.45813C936.492 0.995599 936.85 0.610692 937.295 0.352074C937.74 0.0934555 938.251 -0.0272719 938.764 0.00517252C939.277 0.037617 939.769 0.221778 940.178 0.534353C940.587 0.846927 940.894 1.27389 941.06 1.76126C941.227 2.24863 941.246 2.77454 941.114 3.27248C940.982 3.77042 940.706 4.21804 940.32 4.55875C939.934 4.89946 939.457 5.11796 938.947 5.18664C938.608 5.23226 938.264 5.2106 937.934 5.1229C937.604 5.03521 937.294 4.88319 937.023 4.67554C936.751 4.46789 936.523 4.20868 936.351 3.91271C936.18 3.61675 936.068 3.28983 936.023 2.95064Z" fill="#5DBD6D"/>
<path d="M1018.63 660.234L1023.25 659.578C1023.25 659.578 1022.94 653.562 1018.21 653.947C1018.21 653.938 1020.8 656.05 1018.63 660.234Z" fill="#455A64"/>
<path d="M1014.45 649.093L1011.96 652.959C1011.96 652.959 1013.97 656.064 1018.22 653.875C1018.21 653.938 1013.86 652.997 1014.45 649.093Z" fill="#455A64"/>
<path d="M441.346 624L446 622.512C446 622.512 442.827 620.956 442.827 616.116C442.827 611.275 447.185 609.411 445.309 605L440.119 606.341C440.703 607.492 441.026 608.747 441.067 610.024C441.108 611.301 440.867 612.573 440.359 613.756C439.034 616.518 437.736 619.83 441.346 624Z" fill="#5DBD6D"/>
<path d="M406.536 305.265L406 309.122C406 309.122 408.232 307.445 411.881 309.234C415.531 311.023 415.397 314.824 419.325 315.103L420.151 310.933C419.094 310.916 418.051 310.679 417.09 310.236C416.13 309.794 415.272 309.155 414.571 308.362C412.93 306.349 410.91 304.248 406.536 305.265Z" fill="#455A64"/>
<path d="M82.5792 502.019C82.6192 502.196 82.622 502.38 82.5873 502.558C82.5527 502.736 82.4813 502.906 82.3779 503.055C82.2744 503.204 82.1411 503.33 81.9864 503.424C81.8317 503.519 81.659 503.58 81.4794 503.604C81.2997 503.629 81.117 503.615 80.9429 503.565C80.7688 503.514 80.607 503.428 80.468 503.311C80.3289 503.195 80.2156 503.051 80.1353 502.888C80.0549 502.725 80.0093 502.547 80.0013 502.366C79.9868 502.039 80.0949 501.719 80.3042 501.469C80.5135 501.218 80.8088 501.055 81.1321 501.012C81.4553 500.968 81.7831 501.047 82.051 501.234C82.3188 501.42 82.5072 501.701 82.5792 502.019Z" fill="#263238"/>
<path d="M360.178 30.2593C360.246 30.7698 360.161 31.2892 359.935 31.7518C359.709 32.2143 359.35 32.5992 358.906 32.8578C358.461 33.1164 357.95 33.2372 357.437 33.2047C356.923 33.1723 356.431 32.9881 356.022 32.6755C355.614 32.363 355.307 31.936 355.14 31.4486C354.974 30.9613 354.955 30.4354 355.087 29.9374C355.219 29.4395 355.495 28.9919 355.88 28.6511C356.266 28.3104 356.744 28.0919 357.254 28.0233C357.592 27.9776 357.936 27.9993 358.267 28.087C358.597 28.1747 358.907 28.3267 359.178 28.5343C359.45 28.742 359.678 29.0012 359.849 29.2972C360.021 29.5931 360.132 29.9201 360.178 30.2593Z" fill="#263238"/>
<path d="M482.626 166.827L483.151 162.981C483.151 162.981 480.919 164.658 477.27 162.869C473.62 161.081 473.765 157.279 469.837 157L469 161.17C470.057 161.187 471.1 161.424 472.06 161.867C473.021 162.31 473.879 162.948 474.58 163.742C476.265 165.754 478.296 167.856 482.626 166.827Z" fill="#5DBD6D"/>
<path d="M442 416.356L435.838 414C435.838 414 437.728 418.443 433.456 423.805C429.184 429.167 422.928 427.635 421 434.032L427.559 437C427.977 435.224 428.759 433.556 429.852 432.105C430.946 430.653 432.329 429.45 433.91 428.574C437.822 426.601 442.038 424.054 442 416.356Z" fill="#5DBD6D"/>
<path d="M20.9997 115.356L14.8378 113C14.8378 113 16.728 117.443 12.4562 122.805C8.18441 128.167 1.92797 126.635 0 133.032L6.55888 136C6.97722 134.224 7.75856 132.556 8.8525 131.105C9.94643 129.653 11.3286 128.45 12.9098 127.574C16.8225 125.601 21.0376 123.054 20.9997 115.356Z" fill="#5DBD6D"/>
</svg>
