<svg width="350" height="724" viewBox="0 0 350 724" fill="none" xmlns="http://www.w3.org/2000/svg">
<g clip-path="url(#clip0_1_1128)">
<rect width="350" height="724" rx="10" fill="#5DBD6D"/>
<path d="M448.24 462.526C448.24 640.136 358.048 784.118 246.791 784.118C135.533 784.118 -13.5421 819.314 -2.41142 643.695C16.3131 348.261 241.423 84 352.68 84C463.938 84 448.24 284.915 448.24 462.526Z" fill="url(#paint0_linear_1_1128)"/>
<path d="M427.135 501.831C427.135 607.92 401.528 703.917 360.18 773.359C318.819 842.821 261.82 885.553 199.054 885.553C183.215 885.553 166.708 886.212 149.989 886.953C147.801 887.05 145.608 887.148 143.413 887.247C128.835 887.901 114.139 888.561 99.6003 888.849C66.1344 889.513 33.599 888.207 5.43848 880.38C-22.6962 872.56 -46.4127 858.247 -62.3367 832.914C-78.2753 807.557 -86.4897 771.03 -83.3325 718.625C-72.6987 542.121 -3.45434 374.898 78.9404 251.803C120.137 190.257 164.601 139.772 206.635 104.686C248.71 69.5663 288.201 50 319.468 50C350.702 50 373.01 64.7978 388.974 90.4044C404.977 116.074 414.584 152.586 420.255 195.867C429.096 263.352 428.334 346.962 427.568 430.912C427.352 454.644 427.135 478.402 427.135 501.831Z" stroke="url(#paint1_linear_1_1128)" stroke-width="2"/>
</g>
<defs>
<linearGradient id="paint0_linear_1_1128" x1="233.877" y1="220.946" x2="396.644" y2="276.717" gradientUnits="userSpaceOnUse">
<stop offset="0.161968" stop-color="#6EC47C"/>
<stop offset="1" stop-color="#5DBD6D"/>
</linearGradient>
<linearGradient id="paint1_linear_1_1128" x1="184.369" y1="212.829" x2="371.357" y2="273.732" gradientUnits="userSpaceOnUse">
<stop offset="0.161968" stop-color="#6EC47C"/>
<stop offset="1" stop-color="#5DBD6D"/>
</linearGradient>
<clipPath id="clip0_1_1128">
<rect width="350" height="724" rx="10" fill="white"/>
</clipPath>
</defs>
</svg>
